<svg
   width="120"
   height="60"
   viewBox="0 0 31.75 15.875"
   fill="none"
   stroke="currentColor"
   stroke-width="1"
   xmlns="http://www.w3.org/2000/svg">
    <path
       d="m 31.243807,3.1805073 c 0,0 -1.403165,-5.051394 -6.361014,-0.6548103 C 19.924943,6.9222807 10.57051,1.7773423 10.57051,1.7773423 c 0,0 -5.6126602,-2.24506398 -8.044813,2.0579754 C 0.09354433,8.138357 0.46772168,10.757598 0.841899,11.88013 1.2160763,13.002662 1.7773423,17.118613 7.2029137,13.844561 12.628485,10.57051 16.83798,13.37684 16.83798,13.37684 c 0,0 4.022406,2.151519 8.231901,-0.280633 4.209495,-2.432153 6.735192,-4.7707613 6.173926,-9.9156997 z"
/>
<pattern id="diagonalHatch" patternUnits="userSpaceOnUse" width="4" height="4">
  <path d="M-1,1 l2,-2
           M0,4 l4,-4
           M3,5 l2,-2" 
        stroke="currentColor"
        stroke-width="1" />
</pattern>
</svg>
