<?xml version="1.0" encoding="UTF-8" standalone="no"?>
<!-- Created with Inkscape (http://www.inkscape.org/) -->

<svg
   width="54.110397mm"
   height="29.30797mm"
   viewBox="0 0 54.110397 29.30797"
   version="1.1"
   id="svg7654"
   inkscape:version="1.2.2 (b0a84865, 2022-12-01)"
   sodipodi:docname="tilde-stripe.svg"
   xmlns:inkscape="http://www.inkscape.org/namespaces/inkscape"
   xmlns:sodipodi="http://sodipodi.sourceforge.net/DTD/sodipodi-0.dtd"
   xmlns:xlink="http://www.w3.org/1999/xlink"
   xmlns="http://www.w3.org/2000/svg"
   xmlns:svg="http://www.w3.org/2000/svg">
  <sodipodi:namedview
     id="namedview7656"
     pagecolor="#ffffff"
     bordercolor="#000000"
     borderopacity="0.25"
     inkscape:showpageshadow="2"
     inkscape:pageopacity="0.0"
     inkscape:pagecheckerboard="0"
     inkscape:deskcolor="#d1d1d1"
     inkscape:document-units="mm"
     showgrid="false"
     inkscape:zoom="0.70199214"
     inkscape:cx="172.3666"
     inkscape:cy="404.56293"
     inkscape:window-width="960"
     inkscape:window-height="938"
     inkscape:window-x="960"
     inkscape:window-y="25"
     inkscape:window-maximized="0"
     inkscape:current-layer="layer1" />
  <defs
     id="defs7651">
    <pattern
       inkscape:collect="always"
       xlink:href="#Wavy"
       id="pattern7658"
       patternTransform="rotate(-90,82.384296,78.623136)" />
    <pattern
       inkscape:collect="always"
       patternUnits="userSpaceOnUse"
       width="30.066020"
       height="5.1805778"
       id="Wavy"
       inkscape:stockid="Wavy"
       inkscape:isstock="true">
      <path
         style="fill:black;stroke:none;"
         d="M 7.597,0.061 C 5.079,-0.187 2.656,0.302 -0.01,1.788 L -0.01,3.061 C 2.773,1.431 5.173,1.052 7.472,1.280 C 9.770,1.508 11.969,2.361 14.253,3.218 C 18.820,4.931 23.804,6.676 30.066,3.061 L 30.062,1.788 C 23.622,5.497 19.246,3.770 14.691,2.061 C 12.413,1.207 10.115,0.311 7.597,0.061 z "
         id="path2601" />
    </pattern>
  </defs>
  <g
     inkscape:label="Layer 1"
     inkscape:groupmode="layer"
     id="layer1"
     transform="translate(-59.632619,-41.504644)">
    <path
       style="fill:url(#pattern7658);fill-opacity:1;fill-rule:nonzero;stroke:#000000;stroke-width:1.8;stroke-dasharray:none;stroke-opacity:1"
       d="m 98.915311,67.420677 c 0,0 12.729219,-3.54539 13.820279,-15.36348 1.09109,-11.81809 -6.54646,-9.45448 -6.54646,-9.45448 0,0 -9.092289,8.66661 -17.093509,5.51511 -8.001229,-3.1515 -19.275684,-6.69691 -23.639991,-1.57573 -4.364302,5.12117 -6.18276,12.212 -4.000609,19.30284 2.18215,7.09085 8.728609,2.75757 8.728609,2.75757 0,0 7.637525,-6.30298 13.456601,-3.93935 5.81907,2.3636 10.91077,4.72722 15.27508,2.75752 z"
       id="path7280" />
  </g>
</svg>
